<svg width="121" height="32" viewBox="0 0 121 32" fill="none" xmlns="http://www.w3.org/2000/svg">
<path d="M8 5.33333V4C8.00231 3.20506 8.31912 2.44334 8.88123 1.88123C9.44334 1.31912 10.2051 1.00231 11 1H25C25.7949 1.00231 26.5567 1.31912 27.1188 1.88123C27.6809 2.44334 27.9977 3.20506 28 4V27L23 23" fill="#174674"/>
<path d="M8 5.33333V4C8.00231 3.20506 8.31912 2.44334 8.88123 1.88123C9.44334 1.31912 10.2051 1.00231 11 1H25C25.7949 1.00231 26.5567 1.31912 27.1188 1.88123C27.6809 2.44334 27.9977 3.20506 28 4V27L23 23" stroke="#174674" stroke-width="2" stroke-linejoin="round"/>
<path d="M20 6H7C6.20506 6.00231 5.44334 6.31912 4.88123 6.88123C4.31912 7.44334 4.00231 8.20506 4 9V31L13.5 23L23 31V9C22.9977 8.20506 22.6809 7.44334 22.1188 6.88123C21.5567 6.31912 20.7949 6.00231 20 6Z" fill="white" stroke="#174674" stroke-width="2" stroke-linejoin="round"/>
<path d="M63.127 7.059V26H59.253V15.106C59.253 14.8547 59.2573 14.5817 59.266 14.287C59.2833 13.9923 59.3093 13.6933 59.344 13.39L54.313 23.127C54.157 23.4303 53.9447 23.66 53.676 23.816C53.416 23.972 53.117 24.05 52.779 24.05H52.181C51.843 24.05 51.5397 23.972 51.271 23.816C51.011 23.66 50.803 23.4303 50.647 23.127L45.616 13.364C45.642 13.676 45.6637 13.9837 45.681 14.287C45.6983 14.5817 45.707 14.8547 45.707 15.106V26H41.833V7.059H45.187C45.3777 7.059 45.5423 7.06333 45.681 7.072C45.8283 7.08067 45.9583 7.10667 46.071 7.15C46.1837 7.19333 46.2833 7.26267 46.37 7.358C46.4653 7.44467 46.5563 7.57033 46.643 7.735L51.518 17.342C51.6913 17.6713 51.856 18.0137 52.012 18.369C52.1767 18.7243 52.3327 19.0883 52.48 19.461C52.6273 19.0797 52.779 18.707 52.935 18.343C53.0997 17.979 53.273 17.6323 53.455 17.303L58.317 7.735C58.4037 7.57033 58.4903 7.44467 58.577 7.358C58.6723 7.26267 58.7763 7.19333 58.889 7.15C59.0017 7.10667 59.1273 7.08067 59.266 7.072C59.4133 7.06333 59.5823 7.059 59.773 7.059H63.127ZM72.3497 20.514C71.5437 20.5487 70.8807 20.618 70.3607 20.722C69.8407 20.826 69.429 20.956 69.1257 21.112C68.8224 21.268 68.61 21.4457 68.4887 21.645C68.376 21.8443 68.3197 22.061 68.3197 22.295C68.3197 22.7543 68.4454 23.0793 68.6967 23.27C68.948 23.452 69.3164 23.543 69.8017 23.543C70.3217 23.543 70.7767 23.452 71.1667 23.27C71.5567 23.088 71.951 22.7933 72.3497 22.386V20.514ZM65.0957 14.391C65.9104 13.6717 66.8117 13.1387 67.7997 12.792C68.7964 12.4367 69.8624 12.259 70.9977 12.259C71.8124 12.259 72.5447 12.3933 73.1947 12.662C73.8534 12.922 74.408 13.2903 74.8587 13.767C75.318 14.235 75.669 14.794 75.9117 15.444C76.1544 16.094 76.2757 16.8047 76.2757 17.576V26H74.4297C74.0484 26 73.758 25.948 73.5587 25.844C73.368 25.74 73.2077 25.5233 73.0777 25.194L72.7917 24.453C72.4537 24.739 72.1287 24.9903 71.8167 25.207C71.5047 25.4237 71.1797 25.61 70.8417 25.766C70.5124 25.9133 70.157 26.0217 69.7757 26.091C69.403 26.169 68.987 26.208 68.5277 26.208C67.9124 26.208 67.3534 26.13 66.8507 25.974C66.348 25.8093 65.919 25.571 65.5637 25.259C65.217 24.947 64.9484 24.5613 64.7577 24.102C64.567 23.634 64.4717 23.0967 64.4717 22.49C64.4717 22.0047 64.593 21.515 64.8357 21.021C65.0784 20.5183 65.4987 20.0633 66.0967 19.656C66.6947 19.24 67.5007 18.8933 68.5147 18.616C69.5287 18.3387 70.807 18.1827 72.3497 18.148V17.576C72.3497 16.7873 72.185 16.2197 71.8557 15.873C71.535 15.5177 71.0757 15.34 70.4777 15.34C70.001 15.34 69.611 15.392 69.3077 15.496C69.0044 15.6 68.7314 15.717 68.4887 15.847C68.2547 15.977 68.025 16.094 67.7997 16.198C67.5744 16.302 67.3057 16.354 66.9937 16.354C66.7164 16.354 66.4824 16.2847 66.2917 16.146C66.101 16.0073 65.945 15.8427 65.8237 15.652L65.0957 14.391ZM81.9717 14.599C82.3877 13.871 82.8644 13.299 83.4017 12.883C83.9477 12.467 84.5717 12.259 85.2737 12.259C85.8804 12.259 86.3744 12.402 86.7557 12.688L86.4957 15.652C86.4524 15.8427 86.3787 15.9727 86.2747 16.042C86.1794 16.1113 86.0451 16.146 85.8717 16.146C85.8024 16.146 85.7114 16.1417 85.5987 16.133C85.4861 16.1243 85.3691 16.1157 85.2477 16.107C85.1264 16.0897 85.0007 16.0767 84.8707 16.068C84.7494 16.0507 84.6367 16.042 84.5327 16.042C83.9434 16.042 83.4711 16.198 83.1157 16.51C82.7691 16.822 82.4744 17.2553 82.2317 17.81V26H78.2017V12.519H80.5937C80.7931 12.519 80.9577 12.5363 81.0877 12.571C81.2264 12.6057 81.3391 12.662 81.4257 12.74C81.5211 12.8093 81.5904 12.9047 81.6337 13.026C81.6857 13.1473 81.7291 13.2947 81.7637 13.468L81.9717 14.599ZM91.5095 6.539V17.446H92.1075C92.3588 17.446 92.5495 17.4113 92.6795 17.342C92.8095 17.264 92.9395 17.1383 93.0695 16.965L95.6175 13.169C95.7735 12.9523 95.9511 12.792 96.1505 12.688C96.3498 12.5753 96.6055 12.519 96.9175 12.519H100.609L97.1255 17.316C96.7961 17.7493 96.4061 18.1047 95.9555 18.382C96.1548 18.5293 96.3368 18.7027 96.5015 18.902C96.6661 19.0927 96.8221 19.3093 96.9695 19.552L100.765 26H97.1255C96.8221 26 96.5621 25.9523 96.3455 25.857C96.1288 25.753 95.9468 25.5753 95.7995 25.324L93.2515 20.553C93.1301 20.3363 93.0045 20.1977 92.8745 20.137C92.7445 20.0677 92.5495 20.033 92.2895 20.033H91.5095V26H87.4795V6.539H91.5095ZM105.383 6.539V26H101.353V6.539H105.383ZM120.262 12.519L113.06 29.497C112.938 29.7657 112.791 29.9607 112.618 30.082C112.444 30.212 112.167 30.277 111.786 30.277H108.77L111.37 24.817L105.988 12.519H109.55C109.862 12.519 110.1 12.5883 110.265 12.727C110.438 12.8657 110.564 13.0303 110.642 13.221L112.852 19.032C113.06 19.5607 113.229 20.1023 113.359 20.657C113.454 20.3797 113.549 20.1023 113.645 19.825C113.74 19.5477 113.84 19.2747 113.944 19.006L115.946 13.221C116.024 13.0217 116.162 12.857 116.362 12.727C116.561 12.5883 116.778 12.519 117.012 12.519H120.262Z" fill="#174674"/>
</svg>
